/* XPM */
static char *cacaa5d278414df4a49c864a6dc94ff54v5LLRCnP7OJZXme[] = {
/* columns rows colors chars-per-pixel */
"64 64 21 1 ",
"  c black",
". c #070707",
"X c gray12",
"o c #262224",
"O c #3A2B25",
"+ c #30252E",
"@ c #3A2728",
"# c #2E2E37",
"$ c #302F30",
"% c #3F2832",
"& c #72362E",
"* c #602A30",
"= c #7C4023",
"- c #3E4753",
"; c #4E4745",
": c #7E726B",
"> c #BA593C",
", c #D2711F",
"< c #BDAB9C",
"1 c #8DBFC1",
"2 c #D4E3DB",
/* pixels */
"                                                                ",
"                                                                ",
"                                                                ",
"                                                                ",
"                                                                ",
"                                                                ",
"                                                                ",
"                                                                ",
"                                                                ",
"                XXX           XXXX           XXX                ",
"                X++X         X++++X         X++X                ",
"                X+++XXXXXXXXX++++++XXXXXXXXX+++X                ",
"                X++++++++++++++++++++++++++++++X                ",
"                X@@+++++++++++@@@@+++++++++++@@X                ",
"                X>>@+++++++++@>>>>@+++++++++@>>X                ",
"                X&&>@@@@@@@@@>&&&&>@@@@@@@@@>&&X                ",
"                X&&&&&&&&&&&&&>>>>&&&&&&&&&&&&&X                ",
"                X&>>&&&&&&&&&>++++>&&&&&&&&&>>&X                ",
"                X&+@>&&&&&&&>@++++@>&&&&&&&>@+&X                ",
"                X&++@>&&&&&&>++++++>&&&&&&>@++&X                ",
"                X&++++>&&&&&>++++++>&&&&&>++++&X                ",
"                X&&&&&&&&&&&&&&&&&&&&&&&&&&&&&&X                ",
"                X&@@@@@@@@@@@@@@@@@@@@@@@@@@@@&X                ",
"                X&@&&&&&&&&&&&&&&&&&&&&&&&&&&@&X                ",
"                X&@&>>>>>>>>>>>>>>>>>>>>>>>>&@&X                ",
"                X&@&&&&&&&&&&&&&&&&&&&&&&&&&&@&X                ",
"                X&@&++++++++++++++++++++++++&@&X                ",
"                X&@&+++=O=O=O=O=O=O=O+++++++&@&X                ",
"                X&@&+++=O=O=O=O=O=O=O+++++++&@&X                ",
"                X&@&+oo,O,O,O,O,O,O,oo++++++&@&X                ",
"                X&@&ooo=O=O=O=O=O=O=ooo+++++&@&X                ",
"                X&@&>>>>>>>>>>>>>>>>>>>>>>>>&@&X                ",
"                X&@&&&&&&&&&&&&&&&&&&&&&&&&&&@&X                ",
"                X&@&++++++++++++++++++++++++&@&X                ",
"                X&@&%**+****+++++++#-#-#-#-#&@&X                ",
"                X&@&%**+%%%%+++++++#-#-#-#-#&@&X                ",
"                X&@&@**+****+****+o#-#-#-#-@&@&X                ",
"                X&@&&@*+%%%%+<:<:+o#-#-#-#@&&@&X                ",
"                X&@&&>>>>>>>>>>>>>>>>>>>>>&&&@&X                ",
"                X&@&&&&&&&&&&&&&&&&&&&&&&&&&&@&X                ",
"                X&@&++++++++++++++;;;;++++++&@&X                ",
"                X&@&+++222+++++++;;;;;;;++++&@&X                ",
"                X&@&++21122++++++;$$$;$;;+++&@&X                ",
"                X&@&++22112++++++$;++$;+;+++&@&X                ",
"                X&@&+ooooooo+++++oo,,oo+++++&@&X                ",
"                X&@&>>>>>>>>>>>>>>>>>>>>>>>>&@&X                ",
"                X&@&&&&&&&&&&&&&&&&&&&&&&&&&&@&X                ",
"                X&@&++++++++++++++++++++++++&@&X                ",
"                X&@&+++=O=O=O=O=O=O=O+++++++&@&X                ",
"                X&@&+++=O=O=O=O=O=O=O+++++++&@&X                ",
"                X&@&+oo,O,O,O,O,O,O,oo++++++&@&X                ",
"                X&@&ooo=O=O=O=O=O=O=ooo+++++&@&X                ",
"                X&@&>>>>>>>>>>>>>>>>>>>>>>>>&@&X                ",
"                X&@&&&&&&&&&&&&&&&&&&&&&&&&&&@&X                ",
"                X&@&++++++++++++++++++++++++&@&X                ",
"                X&@&%**+****+++++++#-#-#-#-#&@&X                ",
"                X&@&%**+%%%%+++++++#-#-#-#-#&@&X                ",
"                X&@&@**+****+****+o#-#-#-#-@&@&X                ",
"                X&@&&@*+%%%%+<:<:+o#-#-#-#@&&@&X                ",
"                X&@&&>>>>>>>>>>>>>>>>>>>>>&&&@&X                ",
"                X&@&&&&&&&&&&&&&&&&&&&&&&&&&&@&X                ",
"                X&@&@@@@@@@@@@@@@@@@@@@@@@@&&@&X                ",
"                X@@@@XXXXXXXXXXXXXXXXXXXXXX@@@@X                ",
"                X&&&X  ..................  X&&&X                "
};
