/* XPM */
static char *_de181f376b84284cd5b14ab42a72273ZjiBpk4TohJLLUWD[] = {
/* columns rows colors chars-per-pixel */
"64 64 19 1 ",
"  c black",
". c #232323",
"X c #32282F",
"o c #3A292A",
"O c #3E333D",
"+ c #37383B",
"@ c #473637",
"# c #683630",
"$ c #67383F",
"% c #3E4045",
"& c #45474B",
"* c #554545",
"= c #4B4F55",
"- c #73474F",
"; c #8F403C",
": c #B2523B",
"> c #CC6723",
", c #964F4B",
"< c #F9AF23",
/* pixels */
"                                                                ",
"                                                                ",
"                                                                ",
"                                                                ",
"                                                                ",
"                                                                ",
"                                                                ",
"                                                                ",
"                                                                ",
"                                                                ",
"                                                                ",
"                                                                ",
"                                                                ",
"                                                                ",
"                                                                ",
"                                                                ",
"                       ..     ....     ..                       ",
"                    ...XX.....XXXX.....XX...                    ",
"                   .XXXooXXXXXXXXXXXXXXooXXX.                   ",
"                  .Xooo::ooooo::::ooooo::oooX.                  ",
"                  .o:::##:::::####:::::##:::o.                  ",
"                  .:########################:.                  ",
"                   .oo.........oo.........oo.                   ",
"                   .#o.OOOOOOO.o#.OOOOOOO.o#.                   ",
"                   .#o.@@@@@@@.o#.@*@*@@@.o#.                   ",
"                   .#o.+%+%+%+.o#.&%&%&%+.o#.                   ",
"                   .#o.+%+%+%+.o#.+=+=+=+.o#.                   ",
"                   .#o.+%+%+%+.o#.+%&%&%&.o#.                   ",
"                   .#o.@@@@@@@.o#.@@@*@*@.o#.                   ",
"                   .#o.-;$;$;$.o#.$;$;-;-.o#.                   ",
"                   .#o.$,$;$;$.o>.$;$;$,$.o#.                   ",
"                   .#o.-;-;$;$.o<.$;$;$;-.o#.                   ",
"                   .#o.@*@*@@@.o>.@@@@@@@.o#.                   ",
"                   .#o.&%&%&%+.o#.+%+%+%+.o#.                   ",
"                   .#o.+=+=+=+.o#.+%+%+%+.o#.                   ",
"                   .#o.+%&%&%&.o#.+%+%+%+.o#.                   ",
"                   .#o.@@@*@*@.o#.@@@@@@@.o#.                   ",
"                   .#o.$;$;-;-.o#.;$;$;$;.o#.                   ",
"                   .#o.$;$;$,$.o#.;$;$;$;.o#.                   ",
"                   .#o.$;$;$;-.o#.;$;$;$;.o#.                   ",
"                   .#o.........o#.........o#.                   ",
"                   .oooooooooooooooooooooooo.                   ",
"                  .##########################.                  ",
"                  .##########################.                  ",
"                  .##########################.                  ",
"                  .::::::::::::::::::::::::::.                  ",
"                  .oooooooooooooooooooooooooo.                  ",
"                  .#o#o..................o#o#.                  ",
"                  .#o#o::::::::::::::::::o#o#.                  ",
"                  .#o#o##################o#o#.                  ",
"                  .#o#o>##<##########<##>o#o#.                  ",
"                  .#o#oo><oooooooooooo<>oo#o#.                  ",
"                  .#o#oooooooooooooooooooo#o#.                  ",
"                  .#o#o###oo###oo###oo###o#o#.                  ",
"                  .#o#oo#o##o#oooo#o##o#oo#o#.                  ",
"                  .#o#oo#o#o#o#o>#o#o#o#oo#o#.                  ",
"                  .#o#o#o#o###oo<o###o#o#o#o#.                  ",
"                  .#o#o##o#oo##oo##oo#o##o#o#.                  ",
"                  .#o#o###o##oooooo##o###o#o#.                  ",
"                  .#o#oooooooooooooooooooo#o#.                  ",
"                  .#o######################o#.                  ",
"                  .#o#ooooooooooooooooooo##o#.                  ",
"                  .oooo..................oooo.                  ",
"                  .##o.                  .o##.                  "
};
